HIERARCHY
ROOT joint_Root
{
	OFFSET 0.0 0.0 0.0
	CHANNELS 6 Xposition Yposition Zposition Zrotation Xrotation Yrotation 
	JOINT Hips
	{
		OFFSET 4.5925 91.4895 -427.239
		CHANNELS 6 Xposition Yposition Zposition Zrotation Xrotation Yrotation 
		JOINT Spine
		{
			OFFSET 15.7357 0.0 0.0
			CHANNELS 6 Xposition Yposition Zposition Zrotation Xrotation Yrotation 
			JOINT Chest
			{
				OFFSET 8.98455 -0.406207 0.0
				CHANNELS 6 Xposition Yposition Zposition Zrotation Xrotation Yrotation 
				JOINT Neck
				{
					OFFSET 16.3773 0.0 0.0
					CHANNELS 6 Xposition Yposition Zposition Zrotation Xrotation Yrotation 
					JOINT Head
					{
						OFFSET 6.45672 0.0 0.0
						CHANNELS 6 Xposition Yposition Zposition Zrotation Xrotation Yrotation 
						End Site
						{
							OFFSET 0.0 0.0 0.0
						}
					}
				}
				JOINT Shoulder_L
				{
					OFFSET 12.9942 -0.242716 4.98039
					CHANNELS 6 Xposition Yposition Zposition Zrotation Xrotation Yrotation 
					JOINT UpperArm_L
					{
						OFFSET 5.34809 0.0 0.0
						CHANNELS 6 Xposition Yposition Zposition Zrotation Xrotation Yrotation 
						JOINT LowerArm_L
						{
							OFFSET 24.3286 1.87007e-05 0.0
							CHANNELS 6 Xposition Yposition Zposition Zrotation Xrotation Yrotation 
							JOINT Hand_L
							{
								OFFSET 22.2916 0.0 0.0
								CHANNELS 6 Xposition Yposition Zposition Zrotation Xrotation Yrotation 
								End Site
								{
									OFFSET 0.0 0.0 0.0
								}
							}
						}
					}
				}
				JOINT Shoulder_R
				{
					OFFSET 12.9945 -0.242716 -4.98039
					CHANNELS 6 Xposition Yposition Zposition Zrotation Xrotation Yrotation 
					JOINT UpperArm_R
					{
						OFFSET -5.34813 0.0 0.0
						CHANNELS 6 Xposition Yposition Zposition Zrotation Xrotation Yrotation 
						JOINT LowerArm_R
						{
							OFFSET -24.3289 0.000322201 0.0
							CHANNELS 6 Xposition Yposition Zposition Zrotation Xrotation Yrotation 
							JOINT Hand_R
							{
								OFFSET -22.2915 -0.000108084 0.0
								CHANNELS 6 Xposition Yposition Zposition Zrotation Xrotation Yrotation 
								End Site
								{
									OFFSET 0.0 0.0 0.0
								}
							}
						}
					}
				}
			}
		}
		JOINT UpperLeg_L
		{
			OFFSET -2.19248 -6.46944 0.0
			CHANNELS 6 Xposition Yposition Zposition Zrotation Xrotation Yrotation 
			JOINT LowerLeg_L
			{
				OFFSET 39.0811 0.0 -1.23785e-05
				CHANNELS 6 Xposition Yposition Zposition Zrotation Xrotation Yrotation 
				JOINT Foot_L
				{
					OFFSET 40.9854 0.0 -1.26872e-05
					CHANNELS 6 Xposition Yposition Zposition Zrotation Xrotation Yrotation 
					JOINT Toes_L
					{
						OFFSET 11.7543 0.0 0.0
						CHANNELS 6 Xposition Yposition Zposition Zrotation Xrotation Yrotation 
						End Site
						{
							OFFSET 0.0 0.0 0.0
						}
					}
				}
			}
		}
		JOINT UpperLeg_R
		{
			OFFSET -2.19251 6.46944 0.0
			CHANNELS 6 Xposition Yposition Zposition Zrotation Xrotation Yrotation 
			JOINT LowerLeg_R
			{
				OFFSET -39.0811 -0.00228153 -0.0401928
				CHANNELS 6 Xposition Yposition Zposition Zrotation Xrotation Yrotation 
				JOINT Foot_R
				{
					OFFSET -40.9854 0.0 0.0
					CHANNELS 6 Xposition Yposition Zposition Zrotation Xrotation Yrotation 
					JOINT Toes_R
					{
						OFFSET -11.7543 0.0 0.0
						CHANNELS 6 Xposition Yposition Zposition Zrotation Xrotation Yrotation 
						End Site
						{
							OFFSET 0.0 0.0 0.0
						}
					}
				}
			}
		}
	}
}
MOTION
Frames:	6
Frame Time:	0.0333333
0.000000 0.000000 0.000000 0.000000 0.000000 -0.000000 -0.915939 81.844500 -69.684100 87.178000 0.407313 -1.392250 15.735700 0.000005 -0.000001 76.291000 82.820900 -73.576300 8.984550 -0.406207 -0.000000 6.279010 -3.428210 5.612710 16.377300 -0.000001 -0.000001 -3.487130 -3.776420 3.291370 6.456720 -0.000001 -0.000000 -9.251210 -2.069500 6.822550 12.994200 -0.242716 4.980390 -90.663600 1.954840 -71.244500 5.348090 -0.000007 -0.000001 -75.178200 29.892600 1.310610 24.328600 0.000019 0.000005 15.490400 -3.659080 -102.973000 22.291600 -0.000001 0.000005 12.875700 5.498980 -6.498320 12.994500 -0.242716 -4.980390 87.438500 9.427110 -74.725300 -5.348130 -0.000001 -0.000004 -50.267100 36.633900 -22.313300 -24.328900 0.000322 -0.000009 -12.281000 5.975440 -115.563000 -22.291500 -0.000108 -0.000004 16.183200 5.582770 -10.364100 -2.192480 -6.469440 -0.000000 -175.748000 -4.646440 -30.278800 39.081100 -0.000007 -0.000012 -0.426027 -0.275764 122.916000 40.985400 -0.000006 -0.000013 10.565100 -4.347600 -38.500200 11.754300 -0.000000 0.000003 -0.005519 -0.066413 -19.279300 -2.192510 6.469440 -0.000001 -171.248000 6.742460 160.542000 -39.081100 -0.002282 -0.040193 0.217851 -0.129756 58.846500 -40.985400 0.000008 0.000006 13.943100 -3.223760 -88.950800 -11.754300 -0.000006 -0.000006 -1.234670 -1.487270 -18.539500
0.000000 0.000000 0.000000 0.000000 0.000000 -0.000000 -0.130033 83.623300 -60.899400 89.681000 -1.319740 -2.747690 15.735700 0.000005 -0.000001 94.257800 83.760200 -92.672400 8.984550 -0.406207 -0.000000 4.669420 0.882059 3.131280 16.377300 -0.000001 -0.000001 -3.153950 -4.050200 3.830420 6.456720 -0.000001 -0.000000 -8.240900 -4.517680 7.505400 12.994200 -0.242716 4.980390 -90.596100 1.596090 -69.514300 5.348090 -0.000007 -0.000001 -73.320100 33.867700 6.772100 24.328600 0.000019 0.000005 9.479220 -2.992880 -107.374000 22.291600 -0.000001 0.000005 12.536200 5.509630 -6.925140 12.994500 -0.242716 -4.980390 88.142100 7.717840 -76.421700 -5.348130 -0.000001 -0.000004 -54.049300 35.818200 -23.675000 -24.328900 0.000322 -0.000009 -10.320700 5.980500 -119.775000 -22.291500 -0.000108 -0.000004 16.599000 5.590060 -10.762200 -2.192480 -6.469440 -0.000000 179.224000 -4.170580 -37.453200 39.081100 -0.000007 -0.000012 -0.429801 -0.229543 118.106000 40.985400 -0.000006 -0.000013 11.169500 -7.305120 -44.917500 11.754300 -0.000000 0.000003 -0.005292 -0.064271 -19.192000 -2.192510 6.469440 -0.000001 -175.803000 6.797350 169.449000 -39.081100 -0.002282 -0.040193 0.188749 -0.151031 50.848900 -40.985400 0.000008 0.000006 14.046300 -0.320657 -86.911600 -11.754300 -0.000006 -0.000006 -1.076300 -1.228460 -21.718500
0.000000 0.000000 0.000000 0.000000 0.000000 -0.000000 0.752233 86.676300 -51.509500 91.856400 -3.630490 -4.157520 15.735700 0.000005 -0.000001 114.681000 83.963600 -114.343000 8.984550 -0.406207 -0.000000 3.199830 5.022270 0.535289 16.377300 -0.000001 -0.000001 -2.977030 -3.848170 3.872400 6.456720 -0.000001 -0.000000 -8.060260 -6.372380 7.957400 12.994200 -0.242716 4.980390 -90.235200 0.573632 -67.691200 5.348090 -0.000007 -0.000001 -70.073700 38.067200 10.658800 24.328600 0.000019 0.000005 6.461240 -2.509820 -111.140000 22.291600 -0.000001 0.000005 10.401600 5.511140 -6.988320 12.994500 -0.242716 -4.980390 88.662900 6.222740 -77.849700 -5.348130 -0.000001 -0.000004 -57.120700 37.296300 -23.131100 -24.328900 0.000322 -0.000009 -12.008000 7.388220 -121.156000 -22.291500 -0.000108 -0.000004 18.043500 5.593680 -10.972000 -2.192480 -6.469440 -0.000000 175.329000 -3.364400 -40.450800 39.081100 -0.000007 -0.000012 -0.264353 -0.074914 105.825000 40.985400 -0.000006 -0.000013 10.394100 -8.676280 -51.136900 11.754300 -0.000000 0.000003 -0.005155 -0.062965 -19.138800 -2.192510 6.469440 -0.000001 179.242000 7.269020 177.035000 -39.081100 -0.002282 -0.040193 0.148572 -0.157564 42.681200 -40.985400 0.000008 0.000006 14.314600 5.369910 -76.100800 -11.754300 -0.000006 -0.000006 -0.080966 -0.394636 -32.961200
0.000000 0.000000 0.000000 0.000000 0.000000 -0.000000 1.547620 90.104100 -42.286200 92.972500 -5.792060 -5.832090 15.735700 0.000005 -0.000001 129.767000 83.659100 -130.383000 8.984550 -0.406207 -0.000000 2.046140 8.137570 -1.376250 16.377300 -0.000001 -0.000001 -3.475640 -3.424810 3.512440 6.456720 -0.000001 -0.000000 -8.568030 -6.894250 6.609060 12.994200 -0.242716 4.980390 -89.559900 -0.989249 -66.024400 5.348090 -0.000007 -0.000001 -67.171500 40.273700 13.510800 24.328600 0.000019 0.000005 7.216620 -3.144040 -113.419000 22.291600 -0.000001 0.000005 8.309030 5.502040 -6.611910 12.994500 -0.242716 -4.980390 89.067400 4.764330 -78.912400 -5.348130 -0.000001 -0.000004 -58.786500 39.710700 -23.119000 -24.328900 0.000322 -0.000009 -12.889800 7.546560 -119.851000 -22.291500 -0.000108 -0.000004 17.635700 5.577710 -10.084100 -2.192480 -6.469440 -0.000000 173.582000 -2.740020 -40.967700 39.081100 -0.000007 -0.000012 -0.087191 0.002477 88.378500 40.985400 -0.000006 -0.000013 8.872690 -9.711330 -56.396700 11.754300 -0.000000 0.000003 -0.004506 -0.056607 -18.879700 -2.192510 6.469440 -0.000001 174.397000 10.882500 -178.879000 -39.081100 -0.002282 -0.040193 0.111900 -0.146476 36.557200 -40.985400 0.000008 0.000006 13.314000 14.807100 -58.508500 -11.754300 -0.000006 -0.000006 -0.207666 -0.657687 -44.819700
0.000000 0.000000 0.000000 0.000000 0.000000 -0.000000 1.996260 92.793000 -33.072100 92.322000 -6.711080 -5.694730 15.735700 0.000005 -0.000001 134.408000 83.120200 -135.267000 8.984550 -0.406207 -0.000000 2.166340 9.663780 -1.901260 16.377300 -0.000001 -0.000001 -3.829480 -2.898630 2.763970 6.456720 -0.000001 -0.000000 -9.646950 -6.670710 4.618130 12.994200 -0.242716 4.980390 -88.685900 -2.783860 -64.721500 5.348090 -0.000007 -0.000001 -64.978200 40.511500 16.229600 24.328600 0.000019 0.000005 8.286830 -3.860660 -114.810000 22.291600 -0.000001 0.000005 7.111010 5.478340 -5.684390 12.994500 -0.242716 -4.980390 89.400500 3.206330 -79.405600 -5.348130 -0.000001 -0.000004 -59.211600 42.328600 -24.282100 -24.328900 0.000322 -0.000009 -10.836300 5.527740 -116.709000 -22.291500 -0.000108 -0.000004 16.251600 5.542950 -8.372500 -2.192480 -6.469440 -0.000000 174.472000 -2.702900 -36.977700 39.081100 -0.000007 -0.000012 0.019429 -0.008152 67.224400 40.985400 -0.000006 -0.000013 7.912450 -10.187000 -61.207500 11.754300 -0.000000 0.000003 -0.004978 -0.061260 -19.069300 -2.192510 6.469440 -0.000001 171.089000 13.838000 -174.774000 -39.081100 -0.002282 -0.040193 0.096091 -0.143580 32.874400 -40.985400 0.000008 0.000006 4.146320 20.320500 -41.198800 -11.754300 -0.000006 -0.000006 -0.068325 -0.357927 -31.387200
0.000000 0.000000 0.000000 0.000000 0.000000 -0.000000 1.843020 93.672200 -24.092800 91.101300 -7.292270 -6.161950 15.735700 0.000005 -0.000001 136.882000 83.096400 -137.712000 8.984550 -0.406207 -0.000000 1.773680 10.116200 -1.817580 16.377300 -0.000001 -0.000001 -4.173860 -2.222510 1.714490 6.456720 -0.000001 -0.000000 -9.949650 -6.168420 2.253310 12.994200 -0.242716 4.980390 -87.509000 -5.163790 -64.202100 5.348090 -0.000007 -0.000001 -64.523000 38.811700 19.617300 24.328600 0.000019 0.000005 9.232980 -4.456610 -115.549000 22.291600 -0.000001 0.000005 6.916200 5.461840 -5.067130 12.994500 -0.242716 -4.980390 89.774400 1.334570 -80.413100 -5.348130 -0.000001 -0.000004 -58.962300 44.734800 -25.577800 -24.328900 0.000322 -0.000009 -8.601100 3.674830 -112.962000 -22.291500 -0.000108 -0.000004 15.799200 5.507150 -6.823870 -2.192480 -6.469440 -0.000000 176.362000 -3.742840 -32.414700 39.081100 -0.000007 -0.000012 0.053715 -0.053857 44.923000 40.985400 -0.000006 -0.000013 7.070730 -5.694930 -65.410100 11.754300 -0.000000 0.000003 -0.005205 -0.063440 -19.158100 -2.192510 6.469440 -0.000001 171.483000 12.443500 -173.390000 -39.081100 -0.002282 -0.040193 0.129342 -0.174460 35.849500 -40.985400 0.000008 0.000006 1.833940 13.069200 -37.424300 -11.754300 -0.000006 -0.000006 -0.019285 -0.163298 -23.243500
